<svg xmlns="http://www.w3.org/2000/svg" width="32" height="32" version="1.0" id="heart">
  <path d="M13.223 10.105c-2.088 0-3.805 1.715-3.805 3.84 0 1.864.971 3.354 2.238 4.585 1.268 1.23 2.871 2.274 4.102 3.281a.449.449 0 0 0 .523 0c1.303-1.119 2.797-2.274 4.027-3.542 1.23-1.305 2.199-2.684 2.273-4.324 0-2.125-1.678-3.84-3.803-3.84-1.117 0-2.051.559-2.76 1.342-.707-.783-1.641-1.342-2.795-1.342zm0 .82c1.045 0 1.938.485 2.461 1.268.148.224.523.224.672 0a2.98 2.98 0 0 1 2.424-1.268c1.678 0 2.982 1.342 3.02 2.983v.037c-.111 1.268-.895 2.535-2.051 3.765-1.117 1.156-2.498 2.236-3.768 3.28-1.229-.969-2.646-1.938-3.764-3.02-1.195-1.156-2.016-2.423-1.977-4.026 0-1.677 1.342-3.019 2.983-3.019zm5.482.969c-.225.038-.486.075-.709.224-.373.187.037.895.41.708a1.03 1.03 0 0 1 1.455.447c.223.373.148.857-.113 1.193-.26.335.41.858.635.484.486-.596.521-1.417.186-2.087a2.019 2.019 0 0 0-1.119-.895c-.261-.074-.485-.111-.745-.074z"></path>
</svg>
