<svg xmlns="http://www.w3.org/2000/svg" viewBox="0 0 64 64" id="motorbike">
  <path d="M8.13679 24.8009H23.533V11.1393a1.56115 1.56115 0 00-1.56226-1.55147H8.13679A1.55887 1.55887 0 006.58531 11.1393V23.24943A1.55887 1.55887 0 008.13679 24.8009zm1.573-9.27654A1.067 1.067 0 0110.78724 14.447h8.54384a1.07369 1.07369 0 011.07741 1.07741v4.93455a1.08059 1.08059 0 01-1.07741 1.07741H10.78724a1.07368 1.07368 0 01-1.07741-1.07741zM51.67491 37.93445a5.10788 5.10788 0 00-.82962.05393L44.898 45.4656H59.98169A8.352 8.352 0 0051.67491 37.93445zM16.35742 27.64521a2.49091 2.49091 0 002.37031 1.71311h8.44692a1.20131 1.20131 0 000-2.4026H16.12042zM56.42626 47.62041c-1.85706.00007-8.42213-.00006-10.16 0a7.15663 7.15663 0 1013.53225 3.243 7.04089 7.04089 0 00-.79727-3.243zM20.36542 50.454l-9.94453-.07542-2.17632-.01079c-.01079.16157-.01079.32321-.01079.49557.33465 9.48934 13.98856 9.47487 14.31874-.00013 0-.12916 0-.25844-.01078-.38772z"></path>
  <path d="M45.82459,22.67837h2.20868l-.28014-1.19591v-.9589h3.1353c.00276-1.63269-.003-4.47378,0-6.10889h-3.1353V13.33726a1.0806,1.0806,0,0,0-1.07741-1.07741h-3.911L41.3641,9.08148c-.41067-.89867-1.21406-1.46184-2.02553-.862a3.176,3.176,0,0,0-.65714,3.50164l.377.85113a3.56767,3.56767,0,0,0-2.13325,3.2753v3.243A3.58654,3.58654,0,0,0,40.513,22.67837c.24075-.00059,2.26273.0004,2.55346,0V36.56619a4.6441,4.6441,0,0,1-4.64363,4.64363h-5.581a4.66068,4.66068,0,0,1-4.64363-4.773l.14-4.9237H22.55252C16.2601,31.51347,3.63493,34.9122,3.989,48.18075l.85093.01066a8.70128,8.70128,0,0,1,8.65162-7.90815H17.478a8.69887,8.69887,0,0,1,8.64071,8.05906l12.31484.09687a2.671,2.671,0,0,0,2.17638-1.03427c.63656-.8533,7.637-9.57812,8.47914-10.67723Z"></path>
  <path d="M17.478,42.43808H13.49154a6.53752,6.53752,0,0,0-6.486,5.76411l2.52117.02157,14.43723.10771A6.53873,6.53873,0,0,0,17.478,42.43808Z"></path>
  <rect width="6.389" height="2.78" x="11.865" y="16.602"></rect>
</svg>
